<?xml version="1.0" encoding="utf-8"?>
<!-- Generator: Adobe Illustrator 23.0.1, SVG Export Plug-In . SVG Version: 6.00 Build 0)  -->
<svg version="1.1" id="Layer_1" xmlns="http://www.w3.org/2000/svg" xmlns:xlink="http://www.w3.org/1999/xlink" x="0px" y="0px"
	 viewBox="0 0 1000 1000" style="enable-background:new 0 0 1000 1000;" xml:space="preserve">
<style type="text/css">
	.st0{fill-rule:evenodd;clip-rule:evenodd;fill:#00539D;}
	.st1{clip-path:url(#SVGID_2_);}
	.st2{clip-path:url(#SVGID_4_);}
	.st3{clip-path:url(#SVGID_6_);}
	.st4{fill-rule:evenodd;clip-rule:evenodd;fill:#E20A1C;}
	.st5{clip-path:url(#SVGID_8_);}
	.st6{clip-path:url(#SVGID_10_);}
	.st7{clip-path:url(#SVGID_12_);}
</style>
<g id="surface1">
	<path class="st0" d="M116.3,439.2H35.8v43.4H110c5.5,0,9.5,1.2,12.2,3.7c2.7,2.4,4.1,5.7,4.1,9.7c0,4-1.3,7.3-4,9.8
		c-2.7,2.5-6.7,3.8-12.3,3.8H35.8v50.2h83.3c5.6,0,9.8,1.3,12.7,3.9c2.9,2.6,4.3,6.1,4.3,10.4c0,4.1-1.4,7.6-4.3,10.2
		c-2.8,2.6-7.1,3.9-12.7,3.9H21.9c-7.8,0-13.4-1.7-16.8-5.2c-3.4-3.4-5.1-9-5.1-16.7V433.6c0-5.1,0.8-9.3,2.3-12.6
		c1.5-3.2,3.9-5.6,7.2-7.1c3.3-1.5,7.4-2.2,12.5-2.2h94.4c5.7,0,10,1.3,12.7,3.8c2.8,2.5,4.2,5.8,4.2,9.9c0,4.2-1.4,7.5-4.2,10.1
		C126.3,438,122,439.2,116.3,439.2z"/>
	<g>
		<defs>
			<rect id="SVGID_1_" x="148" y="455.8" width="127.9" height="135.5"/>
		</defs>
		<clipPath id="SVGID_2_">
			<use xlink:href="#SVGID_1_"  style="overflow:visible;"/>
		</clipPath>
		<g class="st1">
			<path class="st0" d="M274,550.5c0,4.1-1.2,8.5-3.7,13.1c-2.5,4.7-6.2,9.1-11.2,13.3c-5,4.2-11.3,7.6-19,10.2
				c-7.6,2.6-16.2,3.8-25.7,3.8c-20.3,0-36.2-5.9-47.6-17.8c-11.4-11.9-17.1-27.7-17.1-47.7c0-13.5,2.6-25.4,7.8-35.7
				c5.2-10.3,12.8-18.4,22.6-24c9.9-5.6,21.7-8.5,35.4-8.5c8.5,0,16.3,1.3,23.4,3.8c7.1,2.5,13.1,5.7,18.1,9.6
				c4.9,3.9,8.7,8.1,11.3,12.6c2.6,4.4,3.9,8.6,3.9,12.4c0,3.9-1.5,7.3-4.4,10c-2.9,2.8-6.5,4.1-10.6,4.1c-2.7,0-5-0.7-6.8-2.1
				c-1.8-1.4-3.8-3.7-6.1-6.8c-4-6.1-8.2-10.7-12.6-13.7c-4.3-3-9.9-4.6-16.7-4.6c-9.7,0-17.6,3.8-23.5,11.4c-6,7.6-8.9,18-8.9,31.2
				c0,6.2,0.8,11.9,2.3,17c1.5,5.2,3.7,9.6,6.6,13.2c2.9,3.7,6.4,6.4,10.5,8.3c4.1,1.9,8.6,2.8,13.5,2.8c6.6,0,12.2-1.5,16.9-4.6
				c4.7-3,8.9-7.7,12.5-14c2-3.7,4.2-6.6,6.5-8.7c2.3-2.1,5.2-3.2,8.6-3.2c4,0,7.3,1.6,10,4.6C272.6,543.8,274,547.1,274,550.5z"/>
		</g>
	</g>
	<g>
		<defs>
			<rect id="SVGID_3_" x="287" y="455.8" width="134.6" height="135.5"/>
		</defs>
		<clipPath id="SVGID_4_">
			<use xlink:href="#SVGID_3_"  style="overflow:visible;"/>
		</clipPath>
		<g class="st2">
			<path class="st0" d="M386.5,524.4c0-13.4-3-23.9-8.9-31.3c-5.9-7.4-13.8-11.2-23.8-11.2c-6.4,0-12.1,1.7-17,5
				c-4.9,3.3-8.7,8.2-11.3,14.8c-2.6,6.5-3.9,14.1-3.9,22.8c0,8.6,1.3,16.1,3.9,22.5c2.6,6.4,6.4,11.4,11.2,14.8
				c4.8,3.4,10.6,5.1,17.1,5.1c10,0,17.9-3.8,23.8-11.3C383.6,548,386.5,537.6,386.5,524.4z M419.5,524.4c0,9.8-1.5,18.8-4.6,27.1
				c-3,8.3-7.5,15.4-13.3,21.3c-5.8,5.9-12.7,10.5-20.7,13.6c-8,3.2-17,4.8-27.1,4.8c-10,0-18.9-1.6-26.9-4.8
				c-7.9-3.2-14.8-7.8-20.7-13.8c-5.8-6-10.2-13.1-13.2-21.2c-3-8.1-4.5-17.2-4.5-27c0-9.9,1.5-19.1,4.6-27.4
				c3.1-8.3,7.4-15.3,13.1-21.2c5.7-5.8,12.6-10.4,20.7-13.5c8.1-3.2,17.1-4.8,26.9-4.8c10,0,19,1.6,27.1,4.8
				c8.1,3.2,15.1,7.8,20.8,13.7c5.8,6,10.2,13,13.2,21.2C418,505.5,419.5,514.5,419.5,524.4z"/>
		</g>
	</g>
	<g>
		<defs>
			<rect id="SVGID_5_" x="432.9" y="408.7" width="159.3" height="182.6"/>
		</defs>
		<clipPath id="SVGID_6_">
			<use xlink:href="#SVGID_5_"  style="overflow:visible;"/>
		</clipPath>
		<g class="st3">
			<path class="st4" d="M592,532.5c0,5.6-1.4,11.7-4.1,18.2c-2.8,6.6-7.1,13-13.1,19.3c-6,6.3-13.5,11.4-22.8,15.3
				c-9.2,3.9-20,5.9-32.3,5.9c-9.3,0-17.8-0.9-25.4-2.7c-7.7-1.7-14.6-4.5-20.8-8.2c-6.2-3.7-11.9-8.6-17.1-14.8
				c-4.7-5.5-8.6-11.7-11.9-18.6c-3.3-6.9-5.8-14.2-7.4-22c-1.7-7.8-2.5-16.1-2.5-24.8c0-14.2,2.1-26.9,6.2-38.2
				c4.1-11.2,10.1-20.9,17.8-28.8c7.7-8,16.7-14.1,27.1-18.2c10.4-4.2,21.4-6.3,33.1-6.3c14.3,0,27,2.9,38.2,8.6
				c11.2,5.7,19.7,12.8,25.6,21.1c6,8.4,8.9,16.3,8.9,23.8c0,4.1-1.5,7.7-4.3,10.8c-2.9,3.1-6.4,4.7-10.5,4.7c-4.6,0-8-1.1-10.3-3.3
				c-2.3-2.2-4.8-5.9-7.7-11.2c-4.7-8.8-10.1-15.3-16.4-19.6c-6.3-4.3-14.1-6.5-23.3-6.5c-14.7,0-26.4,5.6-35.1,16.7
				c-8.7,11.2-13.1,27-13.1,47.6c0,13.7,1.9,25.1,5.8,34.3c3.9,9.1,9.3,15.9,16.4,20.4c7.1,4.5,15.3,6.8,24.8,6.8
				c10.3,0,19-2.6,26.1-7.7c7.1-5.1,12.5-12.6,16.1-22.4c1.5-4.7,3.4-8.5,5.7-11.4c2.3-3,5.8-4.4,10.8-4.4c4.2,0,7.9,1.4,11,4.4
				C590.4,524.3,592,528.1,592,532.5z"/>
		</g>
	</g>
	<g>
		<defs>
			<rect id="SVGID_7_" x="607.9" y="455.8" width="127.9" height="135.5"/>
		</defs>
		<clipPath id="SVGID_8_">
			<use xlink:href="#SVGID_7_"  style="overflow:visible;"/>
		</clipPath>
		<g class="st5">
			<path class="st4" d="M696.6,525.1c-4.8,1.7-11.8,3.7-21,5.6c-9.2,2-15.6,3.4-19.1,4.3c-3.5,0.9-6.9,2.8-10.1,5.4
				c-3.2,2.7-4.8,6.5-4.8,11.3c0,5,1.9,9.2,5.7,12.7c3.7,3.5,8.7,5.2,14.8,5.2c6.5,0,12.5-1.5,18-4.3c5.5-2.8,9.6-6.5,12.1-11
				c2.9-5,4.4-13.2,4.4-24.5V525.1z M698.8,572.7c-8,6.2-15.7,10.8-23.1,13.9c-7.4,3.1-15.7,4.7-25,4.7c-8.4,0-15.8-1.7-22.2-5
				c-6.4-3.4-11.3-7.9-14.8-13.6c-3.4-5.7-5.2-11.9-5.2-18.5c0-9,2.8-16.7,8.6-23c5.7-6.3,13.5-10.6,23.5-12.8
				c2.1-0.5,7.2-1.6,15.5-3.3c8.3-1.7,15.4-3.2,21.3-4.6c5.9-1.4,12.3-3.1,19.2-5.1c-0.4-8.7-2.1-15-5.2-19.1
				c-3.1-4.1-9.5-6.1-19.2-6.1c-8.4,0-14.6,1.1-18.8,3.5c-4.2,2.3-7.9,5.8-10.8,10.5c-3,4.7-5.2,7.8-6.4,9.2c-1.2,1.5-3.9,2.2-8,2.2
				c-3.7,0-6.9-1.2-9.6-3.5c-2.7-2.4-4-5.4-4-9.1c0-5.8,2.1-11.4,6.1-16.9c4.1-5.5,10.5-9.9,19.2-13.5c8.6-3.5,19.5-5.3,32.4-5.3
				c14.4,0,25.8,1.7,34.1,5.1c8.3,3.4,14.1,8.8,17.5,16.2c3.4,7.4,5.1,17.2,5.1,29.4c0,7.7-0.1,14.3-0.1,19.6
				c0,5.4-0.1,11.4-0.2,17.9c0,6.2,1.1,12.6,3.1,19.3c2.1,6.7,3.1,11,3.1,12.9c0,3.4-1.6,6.4-4.8,9.2c-3.2,2.8-6.7,4.2-10.8,4.2
				c-3.4,0-6.7-1.6-10-4.8C706,583.3,702.5,578.7,698.8,572.7z"/>
		</g>
	</g>
	<g>
		<defs>
			<rect id="SVGID_9_" x="749.2" y="455.8" width="114.4" height="135.5"/>
		</defs>
		<clipPath id="SVGID_10_">
			<use xlink:href="#SVGID_9_"  style="overflow:visible;"/>
		</clipPath>
		<g class="st6">
			<path class="st4" d="M862,548.2c0,9-2.2,16.8-6.6,23.3c-4.4,6.4-10.9,11.4-19.6,14.7c-8.6,3.3-19.1,5-31.5,5
				c-11.8,0-21.9-1.8-30.3-5.4c-8.4-3.6-14.7-8.1-18.7-13.6c-4-5.4-6-10.8-6-16.3c0-3.6,1.3-6.7,3.9-9.3c2.6-2.6,5.8-3.9,9.7-3.9
				c3.5,0,6.1,0.8,8,2.5c1.8,1.7,3.6,4.1,5.3,7.1c3.3,5.9,7.4,10.2,12.1,13.1c4.7,2.9,11.1,4.3,19.2,4.3c6.6,0,12-1.5,16.2-4.4
				c4.2-2.9,6.3-6.3,6.3-10.1c0-5.8-2.2-10-6.5-12.6c-4.4-2.6-11.6-5.2-21.6-7.6c-11.3-2.8-20.5-5.7-27.6-8.9
				c-7.1-3.1-12.8-7.1-17-12.2c-4.3-5.1-6.4-11.3-6.4-18.7c0-6.6,1.9-12.8,5.9-18.7c3.9-5.9,9.7-10.6,17.4-14.1
				c7.7-3.5,16.9-5.2,27.8-5.2c8.5,0,16.2,0.9,23,2.7c6.7,1.8,12.4,4.1,16.9,7.1c4.5,3,8,6.3,10.3,9.9c2.4,3.6,3.6,7.2,3.6,10.6
				c0,3.8-1.3,6.9-3.8,9.3c-2.5,2.4-6.1,3.6-10.8,3.6c-3.4,0-6.3-1-8.6-2.9c-2.4-1.9-5.1-4.8-8.1-8.7c-2.5-3.2-5.4-5.8-8.8-7.7
				c-3.4-1.9-8-2.9-13.7-2.9c-5.9,0-10.9,1.3-14.8,3.8c-3.9,2.5-5.9,5.7-5.9,9.5c0,3.4,1.4,6.3,4.3,8.5c2.9,2.2,6.8,4.1,11.7,5.5
				c4.9,1.5,11.7,3.2,20.3,5.3c10.2,2.5,18.5,5.4,25,8.9c6.5,3.5,11.4,7.5,14.7,12.2C860.3,536.8,862,542.2,862,548.2z"/>
		</g>
	</g>
	<g>
		<defs>
			<rect id="SVGID_11_" x="881.5" y="408.7" width="118.5" height="182.6"/>
		</defs>
		<clipPath id="SVGID_12_">
			<use xlink:href="#SVGID_11_"  style="overflow:visible;"/>
		</clipPath>
		<g class="st7">
			<path class="st4" d="M915.8,428.6v48.8c4.2-4.8,8.2-8.6,12.2-11.5c4-2.8,8.4-4.9,13.2-6.3c4.8-1.4,10-2.1,15.5-2.1
				c8.4,0,15.8,1.8,22.2,5.3c6.5,3.5,11.5,8.7,15.2,15.4c2.3,3.9,3.9,8.3,4.7,13.2c0.8,4.9,1.2,10.5,1.2,16.8v63
				c0,6.6-1.5,11.5-4.5,14.9c-3,3.4-7,5.1-12,5.1c-10.8,0-16.3-6.6-16.3-20v-55.6c0-10.5-1.5-18.6-4.7-24.2
				c-3.1-5.6-9.1-8.5-17.8-8.5c-5.9,0-11.2,1.7-15.8,5c-4.7,3.3-8.2,7.9-10.5,13.6c-1.8,4.9-2.7,13.6-2.7,26.1v43.5
				c0,6.5-1.5,11.4-4.4,14.9c-2.9,3.4-7,5.1-12.2,5.1c-10.8,0-16.2-6.6-16.2-20V428.6c0-6.7,1.4-11.7,4.3-15c2.8-3.3,6.8-5,12-5
				c5.2,0,9.3,1.7,12.2,5.1C914.3,417.1,915.8,422,915.8,428.6z"/>
		</g>
	</g>
</g>
</svg>
