<svg xmlns="http://www.w3.org/2000/svg" width="376" height="130" xmlns:v="https://vecta.io/nano"><path fill="#ffe100" d="M84 34h208v64H84z"/><g fill="#0071bb"><path d="M116.921 80.738a1.28 1.28 0 0 0-.344-.325 1.77 1.77 0 0 0-.648-.217 5.25 5.25 0 0 0-.759-.041h-8.35V63.123a7.87 7.87 0 0 0-.066-1.135 1.83 1.83 0 0 0-.253-.686 1.33 1.33 0 0 0-.418-.39 2.18 2.18 0 0 0-.817-.258 8.53 8.53 0 0 0-1.012-.049h-3.178l-.683.015c-.153.006-.304.031-.45.075a.94.94 0 0 0-.691.661c-.05.167-.073.341-.068.516a2.76 2.76 0 0 0 .559 1.672 3.56 3.56 0 0 0 1.361 1.079v18.235a4.78 4.78 0 0 0 .078.955c.042.214.128.416.253.594a1.23 1.23 0 0 0 .372.346 1.93 1.93 0 0 0 .716.24 7.05 7.05 0 0 0 .855.049h11.789a5.48 5.48 0 0 0 .886-.065 1.66 1.66 0 0 0 .564-.23c.13-.086.242-.198.326-.33a1.59 1.59 0 0 0 .215-.619 4.71 4.71 0 0 0 .04-.712v-.988a3.91 3.91 0 0 0-.063-.823 1.46 1.46 0 0 0-.22-.545m21.674-19.422c-.11-.161-.255-.294-.423-.39a2.19 2.19 0 0 0-.825-.258 8.58 8.58 0 0 0-1.027-.049h-3.16l-.683.015a1.9 1.9 0 0 0-.45.075.96.96 0 0 0-.347.163.97.97 0 0 0-.354.49c-.05.172-.074.35-.071.529.004.606.203 1.193.567 1.672.359.468.826.839 1.359 1.079v11.768c.007.581-.068 1.16-.223 1.719a3.27 3.27 0 0 1-1.298 1.832c-.663.444-1.614.733-2.978.733a5.18 5.18 0 0 1-1.969-.341c-.714-.275-1.305-.809-1.657-1.499a5.25 5.25 0 0 1-.529-2.444v-13.27c.011-.383-.013-.765-.073-1.143a1.73 1.73 0 0 0-.273-.681c-.109-.161-.252-.295-.42-.39-.255-.14-.534-.227-.822-.258a8.6 8.6 0 0 0-1.03-.049h-3.163l-.683.015a1.84 1.84 0 0 0-.448.075.94.94 0 0 0-.347.163.95.95 0 0 0-.339.49c-.05.172-.074.35-.071.529a2.81 2.81 0 0 0 .564 1.672 3.57 3.57 0 0 0 1.364 1.079v11.801a10.62 10.62 0 0 0 .587 3.634 7.48 7.48 0 0 0 3.239 3.966c1.569.945 3.591 1.445 6.073 1.445a14.62 14.62 0 0 0 4.547-.643c1.938-.64 3.398-1.75 4.335-3.205s1.377-3.231 1.377-5.192V63.133a6.61 6.61 0 0 0-.076-1.143c-.042-.244-.134-.476-.271-.681m32.172-.014a1.27 1.27 0 0 0-.4-.382 2.16 2.16 0 0 0-.789-.258 7.73 7.73 0 0 0-.974-.049h-2.923c-.379-.007-.758.016-1.134.07-.238.031-.47.098-.688.201-.311.157-.573.398-.759.697a6.42 6.42 0 0 0-.483 1.032h0l-5.39 14.542-5.114-14.467h0a8.19 8.19 0 0 0-.395-.921 2.17 2.17 0 0 0-.397-.542 1.89 1.89 0 0 0-.936-.495 5.49 5.49 0 0 0-1.265-.114h-5.79l-.681.015c-.152.006-.302.031-.448.075a.96.96 0 0 0-.347.163.91.91 0 0 0-.344.48 1.55 1.55 0 0 0-.073.516 2.78 2.78 0 0 0 .579 1.677c.37.466.844.835 1.382 1.076v18.323a4.05 4.05 0 0 0 .078.901 1.49 1.49 0 0 0 .253.573 1.28 1.28 0 0 0 .359.333 1.95 1.95 0 0 0 .686.232 5.78 5.78 0 0 0 .802.049h1.172a4.98 4.98 0 0 0 .944-.072 1.52 1.52 0 0 0 .595-.258 1.17 1.17 0 0 0 .337-.354 1.79 1.79 0 0 0 .22-.655 5.66 5.66 0 0 0 .04-.759V71.285l-.025-2.142 5.516 14.534h0a2.49 2.49 0 0 0 .364.653 1.72 1.72 0 0 0 .858.586 3.3 3.3 0 0 0 1.012.129h1.202a2.76 2.76 0 0 0 1.336-.274c.209-.11.393-.263.542-.449a2.29 2.29 0 0 0 .362-.655l5.59-14.661-.03 3.592v10.359a4.23 4.23 0 0 0 .073.901 1.5 1.5 0 0 0 .253.573c.098.132.218.244.354.333a1.91 1.91 0 0 0 .691.232 5.79 5.79 0 0 0 .8.049h1.167c.313.006.625-.018.934-.072a1.56 1.56 0 0 0 .595-.245 1.37 1.37 0 0 0 .337-.354c.12-.198.199-.42.23-.65a5.11 5.11 0 0 0 .043-.774V63.037a6.54 6.54 0 0 0-.063-1.084 1.64 1.64 0 0 0-.253-.658m39.856 18.233c-.23.014-.456.075-.663.178l-.033.015c-1.541.643-3.459 1.443-5.924 1.443-4.499 0-6.782-2.64-6.782-7.853 0-3.837 1.179-8.41 6.814-8.41 2.434 0 4.178.818 5.448 1.412l.159.075a1.76 1.76 0 0 0 .736.23c.6 0 .6-.717.6-1.105a4.72 4.72 0 0 0-.61-2.493c-.926-1.525-3.211-2.323-6.604-2.323-3.641 0-6.468.996-8.414 2.963-2.105 2.126-3.173 5.399-3.173 9.724s1.106 7.463 3.29 9.44c1.875 1.698 4.598 2.563 8.097 2.563 3.965 0 6.513-1.032 7.369-2.945a5.22 5.22 0 0 0 .357-1.884c0-.279 0-1.032-.663-1.032m16.846-17.374c-.43-1.123-.759-1.445-2.199-1.445h-4.615c-1.012 0-1.518 0-1.518.947 0 .865.493 1.974 1.855 2.581l-7.338 18.945c-.204.528-.196.948.025 1.259.21.286.59.436 1.124.436h1.852c1.364 0 1.756-.271 2.201-1.52l1.24-3.51h8.948l1.265 3.51c.448 1.249.835 1.52 2.166 1.52h1.994c.506 0 .843-.134 1.037-.395s.213-.692 0-1.234l-8.037-21.094zm.046 13.373h-5.853l2.94-8.155 2.913 8.155zm19.922-5.208c-2.156-.604-3.866-1.079-3.866-3.19s1.817-2.581 3.34-2.581c2.452 0 3.543.444 5.104 1.166.199.088.413.138.63.147.23 0 .759-.093.759-.929 0-.986-.101-2.124-1.301-3.141-.759-.653-1.908-1.086-3.446-1.303v-.64c0-1.868-.311-2.175-2.201-2.175h-.478c-1.875 0-2.196.323-2.196 2.175v.751c-3.426.774-5.23 3.187-5.23 6.968 0 4.89 3.168 5.837 5.957 6.674 2.325.692 4.33 1.29 4.33 3.951 0 2.16-2.077 2.614-3.818 2.614-2.067 0-3.373-.578-5.028-1.314l-.238-.108a2.49 2.49 0 0 0-1.012-.315c-.759 0-.759.914-.759 1.254 0 1.763.835 3.079 2.346 3.701a9.62 9.62 0 0 0 3.467.926v1.409c0 1.486.362 1.848 1.85 1.848h1.172c1.503 0 1.855-.343 1.855-1.848v-1.672c3.348-.808 5.19-3.259 5.19-6.921 0-5.644-3.56-6.64-6.42-7.435m27.104-9.694h-.506c-1.948 0-2.262.312-2.262 2.243v7.192h-8.467v-7.192c0-1.868-.321-2.204-2.161-2.243h-3.135c-.984 0-1.518 0-1.518.957 0 .862.473 1.972 1.799 2.581V83.11c0 1.528.375 1.902 1.916 1.902h1.199c1.554 0 1.91-.356 1.91-1.902v-8.686h8.474v8.686c0 1.548.359 1.902 1.916 1.902h1.197c1.538 0 1.913-.374 1.913-1.902V62.877c0-1.907-.337-2.243-2.277-2.243m-93.72-7.215h1.625c1.943 0 2.277-.354 2.277-2.222v-5.161c0-1.874-.329-2.225-2.277-2.225h-1.625c-1.946 0-2.313.351-2.313 2.225v5.161c0 1.868.367 2.222 2.313 2.222"/><path d="M192.198 57.182l3.811-3.654c1.379-1.321 1.412-1.791.04-3.11l-1.156-1.105c-1.374-1.319-1.898-1.319-3.272 0l-3.808 3.652c-1.379 1.324-1.379 1.822 0 3.151l1.146 1.092c1.369 1.326 1.867 1.29 3.239-.026m-16.767-4.217l-3.796-3.652c-1.377-1.319-1.867-1.352-3.244-.031l-1.151 1.102c-1.377 1.324-1.377 1.822 0 3.143l3.806 3.654c1.374 1.319 1.895 1.319 3.274 0l1.149-1.102c1.377-1.316 1.346-1.791-.035-3.115m11.265 7.637l-10.086-.021c-.253 0-.486.317-.486.712l-.048 23.03c0 .395.215.715.481.715l10.096.018c.271 0 .488-.32.488-.712l.04-23.025c0-.395-.215-.715-.486-.715m-6.69 22.575c-.015.456-.388.814-.835.803h-1.048a.82.82 0 0 1-.835-.8v-.346c.016-.455.389-.812.835-.8h1.048c.449-.012.822.348.838.805l-.003.338zm0-2.323c-.018.456-.392.813-.84.8h-1.037c-.447.012-.82-.347-.835-.803v-.343c.018-.456.392-.813.84-.8h1.048c.447-.009.819.349.835.805l-.01.341zm0-2.323c-.015.456-.388.814-.835.803h-1.043c-.449.012-.822-.348-.838-.805v-.343c.018-.456.392-.813.84-.8h1.05c.214-.007.422.074.578.224a.83.83 0 0 1 .252.576l-.005.346zm2.953 4.63c-.016.455-.389.812-.835.8h-1.048c-.446.01-.817-.348-.833-.803v-.346a.82.82 0 0 1 .838-.8h1.048c.214-.007.422.074.578.224a.83.83 0 0 1 .252.576v.348zm0-2.323c-.015.456-.388.814-.835.803h-1.035a.82.82 0 0 1-.835-.803v-.343a.82.82 0 0 1 .835-.797h1.053a.8.8 0 0 1 .579.225c.156.151.247.358.253.577l-.015.338zm0-2.307a.82.82 0 0 1-.838.797h-1.032a.82.82 0 0 1-.83-.803v-.341a.82.82 0 0 1 .838-.8h1.048c.447-.012.82.347.835.803l-.02.343zm2.953 4.627a.83.83 0 0 1-.255.576.8.8 0 0 1-.58.222h-1.05c-.446.01-.818-.345-.838-.8v-.346c.007-.22.099-.427.256-.577a.8.8 0 0 1 .582-.223h1.048c.446-.012.819.345.835.8l.003.348zm0-2.323a.82.82 0 0 1-.835.8h-1.05c-.449.01-.821-.35-.835-.808v-.341c.016-.456.39-.813.838-.8h1.05a.82.82 0 0 1 .833.803v.346zm0-2.323a.82.82 0 0 1-.835.8h-1.05a.82.82 0 0 1-.835-.8v-.346c.016-.456.39-.813.838-.8h1.05c.446-.01.817.348.833.803v.343zm0-3.912c.061.315-.138.62-.445.686l-7.675-.015a.58.58 0 0 1-.483-.64l.02-11.432c-.035-.309.178-.591.481-.635h7.68c.303.048.515.329.483.64l-.061 11.396z"/></g></svg>